ply
format ascii 1.0
comment Created by Blender 2.79 (sub 0) - www.blender.org, source file: 'dungeonkart.blend'
element vertex 416
property float x
property float y
property float z
property float nx
property float ny
property float nz
element face 109
property list uchar uint vertex_indices
end_header
-0.479886 -0.479886 0.714428 -1.000000 -0.000000 0.000000
-0.479886 -0.479886 1.674201 -1.000000 -0.000000 0.000000
-0.479886 0.479886 1.674201 -1.000000 -0.000000 0.000000
-0.479886 0.479886 0.714428 -1.000000 -0.000000 0.000000
-0.479886 0.479886 0.714428 0.000000 1.000000 0.000000
-0.479886 0.479886 1.674201 0.000000 1.000000 0.000000
0.479886 0.479886 1.674201 0.000000 1.000000 0.000000
0.479886 0.479886 0.714428 0.000000 1.000000 0.000000
0.479886 0.479886 0.714428 1.000000 -0.000000 0.000000
0.479886 0.479886 1.674201 1.000000 -0.000000 0.000000
0.479886 -0.479886 1.674201 1.000000 -0.000000 0.000000
0.479886 -0.479886 0.714428 1.000000 -0.000000 0.000000
-0.479886 -0.479886 1.674201 -0.000000 -1.000000 0.000000
-0.479886 -0.479886 0.714428 -0.000000 -1.000000 0.000000
0.479886 -0.479886 0.714428 -0.000000 -1.000000 0.000000
0.479886 -0.479886 1.674201 -0.000000 -1.000000 0.000000
0.479886 -0.479886 0.714428 0.000000 -0.000000 -1.000000
-0.479886 -0.479886 0.714428 0.000000 -0.000000 -1.000000
-0.479886 0.479886 0.714428 0.000000 -0.000000 -1.000000
0.479886 0.479886 0.714428 0.000000 -0.000000 -1.000000
-0.479886 -0.479886 1.674201 0.000000 -0.909643 0.415392
0.479886 -0.479886 1.674201 0.000000 -0.909643 0.415392
0.322018 -0.322018 2.019907 0.000000 -0.909643 0.415392
-0.322018 -0.322018 2.019907 0.000000 -0.909643 0.415392
0.441546 -0.441546 2.197667 0.829843 0.000000 -0.557997
0.322018 -0.322018 2.019907 0.829843 0.000000 -0.557997
0.322018 0.322018 2.019907 0.829843 0.000000 -0.557997
0.322018 0.322018 2.019907 0.681642 0.306462 -0.664414
0.441546 0.441546 2.197667 0.681642 0.306462 -0.664414
0.489942 0.244971 2.156647 0.681642 0.306462 -0.664414
0.489942 0.244971 2.156647 -0.646578 0.000000 -0.762848
0.512758 -0.000000 2.137309 -0.646578 0.000000 -0.762848
0.489942 -0.244971 2.156647 -0.646578 0.000000 -0.762848
0.489942 -0.244971 2.156647 0.058374 -0.217676 -0.974274
0.441546 -0.441546 2.197667 0.058374 -0.217676 -0.974274
0.322018 0.322018 2.019907 0.058374 -0.217676 -0.974274
0.322018 0.322018 2.019907 0.631432 0.000000 -0.775431
0.489942 0.244971 2.156647 0.631432 0.000000 -0.775431
0.489942 -0.244971 2.156647 0.631432 0.000000 -0.775431
0.479886 0.479886 1.674201 0.000000 0.909643 0.415392
-0.479886 0.479886 1.674201 0.000000 0.909643 0.415392
-0.322018 0.322018 2.019907 0.000000 0.909643 0.415392
0.322018 0.322018 2.019907 0.000000 0.909643 0.415392
0.479886 -0.479886 1.674201 0.909643 0.000000 0.415392
0.479886 0.479886 1.674201 0.909643 0.000000 0.415392
0.322018 0.322018 2.019907 0.909643 0.000000 0.415392
0.322018 -0.322018 2.019907 0.909643 0.000000 0.415392
-0.479886 0.479886 1.674201 -0.909643 0.000000 0.415392
-0.479886 -0.479886 1.674201 -0.909643 0.000000 0.415392
-0.322018 -0.322018 2.019907 -0.909643 0.000000 0.415392
-0.322018 0.322018 2.019907 -0.909643 0.000000 0.415392
0.558151 0.279075 2.743290 0.908864 0.344809 0.234675
0.480035 0.480035 2.719306 0.908864 0.344809 0.234675
0.454595 0.454595 2.886457 0.908864 0.344809 0.234675
0.511718 0.255859 2.925982 0.908864 0.344809 0.234675
-0.441546 0.441546 2.197667 -0.829843 0.000000 -0.557997
-0.322018 0.322018 2.019907 -0.829843 0.000000 -0.557997
-0.322018 -0.322018 2.019907 -0.829843 0.000000 -0.557997
-0.322018 -0.322018 2.019907 -0.681642 -0.306462 -0.664414
-0.441546 -0.441546 2.197667 -0.681642 -0.306462 -0.664414
-0.489942 -0.244971 2.156647 -0.681642 -0.306462 -0.664414
-0.489942 -0.244971 2.156647 0.646578 0.000000 -0.762848
-0.512758 -0.000000 2.137309 0.646578 0.000000 -0.762848
-0.489942 0.244971 2.156647 0.646578 0.000000 -0.762848
-0.489942 0.244971 2.156647 -0.058374 0.217676 -0.974274
-0.441546 0.441546 2.197667 -0.058374 0.217676 -0.974274
-0.322018 -0.322018 2.019907 -0.058374 0.217676 -0.974274
-0.322018 -0.322018 2.019907 -0.631432 -0.000000 -0.775431
-0.489942 -0.244971 2.156647 -0.631432 -0.000000 -0.775431
-0.489942 0.244971 2.156647 -0.631432 -0.000000 -0.775431
-0.441546 -0.441546 2.197667 -0.000000 -0.829843 -0.557997
-0.322018 -0.322018 2.019907 -0.000000 -0.829843 -0.557997
0.322018 -0.322018 2.019907 -0.000000 -0.829843 -0.557997
0.322018 -0.322018 2.019907 0.759726 -0.172611 -0.626915
0.441546 -0.441546 2.197667 0.759726 -0.172611 -0.626915
0.207357 -0.607476 1.959551 0.759726 -0.172611 -0.626915
0.207357 -0.607476 1.959551 0.000000 0.411413 -0.911449
0.000000 -0.634737 1.947246 0.000000 0.411413 -0.911449
-0.207357 -0.607476 1.959551 0.000000 0.411413 -0.911449
-0.207357 -0.607476 1.959551 -0.267506 0.647045 -0.713984
-0.441546 -0.441546 2.197667 -0.267506 0.647045 -0.713984
0.322018 -0.322018 2.019907 -0.267506 0.647045 -0.713984
0.322018 -0.322018 2.019907 0.000000 0.206863 -0.978370
0.207357 -0.607476 1.959551 0.000000 0.206863 -0.978370
-0.207357 -0.607476 1.959551 0.000000 0.206863 -0.978370
0.441546 0.441546 2.197667 0.000000 0.829843 -0.557997
0.322018 0.322018 2.019907 0.000000 0.829843 -0.557997
-0.322018 0.322018 2.019907 0.000000 0.829843 -0.557997
-0.322018 0.322018 2.019907 -0.306462 0.681642 -0.664414
-0.441546 0.441546 2.197667 -0.306462 0.681642 -0.664414
-0.244971 0.489942 2.156647 -0.306462 0.681642 -0.664414
-0.244971 0.489942 2.156647 0.000000 -0.646578 -0.762848
0.000000 0.512758 2.137309 0.000000 -0.646578 -0.762848
0.244971 0.489942 2.156647 0.000000 -0.646578 -0.762848
0.244971 0.489942 2.156647 0.217676 0.058374 -0.974274
0.441546 0.441546 2.197667 0.217676 0.058374 -0.974274
-0.322018 0.322018 2.019907 0.217676 0.058374 -0.974274
-0.322018 0.322018 2.019907 0.000000 0.631432 -0.775431
-0.244971 0.489942 2.156647 0.000000 0.631432 -0.775431
0.244971 0.489942 2.156647 0.000000 0.631432 -0.775431
-0.312854 -0.312854 3.004853 -0.359606 -0.359606 0.861027
-0.511718 -0.255859 2.925982 -0.359606 -0.359606 0.861027
-0.454595 -0.454595 2.886457 -0.359606 -0.359606 0.861027
-0.255859 -0.511718 2.925982 -0.359606 -0.359606 0.861027
-0.558151 -0.279075 2.743290 -0.908864 -0.344809 0.234675
-0.480035 -0.480035 2.719306 -0.908864 -0.344809 0.234675
-0.454595 -0.454595 2.886457 -0.908864 -0.344809 0.234675
-0.511718 -0.255859 2.925982 -0.908864 -0.344809 0.234675
0.279075 -0.558151 2.743290 0.344809 -0.908864 0.234675
0.480035 -0.480035 2.719306 0.344809 -0.908864 0.234675
0.454595 -0.454595 2.886457 0.344809 -0.908864 0.234675
0.255859 -0.511718 2.925982 0.344809 -0.908864 0.234675
-0.279075 0.558151 2.743290 -0.344809 0.908864 0.234675
-0.480035 0.480035 2.719306 -0.344809 0.908864 0.234675
-0.454595 0.454595 2.886457 -0.344809 0.908864 0.234675
-0.255859 0.511718 2.925982 -0.344809 0.908864 0.234675
0.279075 0.558151 2.743290 0.142593 0.948563 0.282657
0.000000 0.600724 2.756362 0.142593 0.948563 0.282657
0.000000 0.539861 2.945454 0.142593 0.948563 0.282657
0.255859 0.511718 2.925982 0.142593 0.948563 0.282657
0.270865 0.541729 2.321252 0.154309 0.973772 -0.167203
0.000000 0.578676 2.304156 0.154309 0.973772 -0.167203
0.000000 0.619414 2.523703 0.154309 0.973772 -0.167203
0.285856 0.571713 2.527416 0.154309 0.973772 -0.167203
-0.270865 0.541729 2.321252 -0.368634 0.919385 -0.137259
-0.471398 0.471398 2.353795 -0.368634 0.919385 -0.137259
-0.486881 0.486881 2.534019 -0.368634 0.919385 -0.137259
-0.285856 0.571713 2.527416 -0.368634 0.919385 -0.137259
-0.279075 -0.558151 2.743290 -0.142593 -0.948563 0.282657
0.000000 -0.600724 2.756362 -0.142593 -0.948563 0.282657
0.000000 -0.539861 2.945454 -0.142593 -0.948563 0.282657
-0.255859 -0.511718 2.925982 -0.142593 -0.948563 0.282657
-0.270865 -0.611914 2.320328 -0.094200 -0.955510 0.279512
0.000000 -0.652141 2.407965 -0.094200 -0.955510 0.279512
0.000000 -0.575427 2.536346 -0.094200 -0.955510 0.279512
-0.339222 -0.583944 2.526775 -0.094200 -0.955510 0.279512
0.270865 -0.611914 2.320328 0.540384 -0.831602 -0.128150
0.471398 -0.471398 2.353795 0.540384 -0.831602 -0.128150
0.486881 -0.504474 2.534019 0.540384 -0.831602 -0.128150
0.339222 -0.583944 2.526775 0.540384 -0.831602 -0.128150
-0.558151 0.279075 2.743290 -0.948563 0.142593 0.282657
-0.600724 -0.000000 2.756362 -0.948563 0.142593 0.282657
-0.539861 -0.000000 2.945454 -0.948563 0.142593 0.282657
-0.511718 0.255859 2.925982 -0.948563 0.142593 0.282657
-0.541729 0.270865 2.321252 -0.973772 0.154309 -0.167203
-0.578676 -0.000000 2.304156 -0.973772 0.154309 -0.167203
-0.619414 -0.000000 2.523703 -0.973772 0.154309 -0.167203
-0.571713 0.285856 2.527416 -0.973772 0.154309 -0.167203
-0.541729 -0.270865 2.321252 -0.922073 -0.355602 -0.152739
-0.471398 -0.471398 2.353795 -0.922073 -0.355602 -0.152739
-0.486881 -0.504474 2.534019 -0.922073 -0.355602 -0.152739
-0.571713 -0.285856 2.527416 -0.922073 -0.355602 -0.152739
0.312854 -0.312854 3.004853 0.159504 -0.449766 0.878788
0.000000 -0.349437 3.055477 0.159504 -0.449766 0.878788
0.000000 -0.539861 2.945454 0.159504 -0.449766 0.878788
0.255859 -0.511718 2.925982 0.159504 -0.449766 0.878788
0.312854 0.312854 3.004853 0.209067 0.209067 0.955292
0.000000 0.349437 3.055477 0.209067 0.209067 0.955292
0.000000 -0.000000 3.141789 0.209067 0.209067 0.955292
0.349437 -0.000000 3.055477 0.209067 0.209067 0.955292
-0.312854 0.312854 3.004853 -0.449766 0.159504 0.878788
-0.511718 0.255859 2.925982 -0.449766 0.159504 0.878788
-0.539861 -0.000000 2.945454 -0.449766 0.159504 0.878788
-0.349437 -0.000000 3.055477 -0.449766 0.159504 0.878788
0.558151 -0.279075 2.743290 0.948563 -0.142593 0.282657
0.600724 -0.000000 2.756362 0.948563 -0.142593 0.282657
0.539861 -0.000000 2.945454 0.948563 -0.142593 0.282657
0.511718 -0.255859 2.925982 0.948563 -0.142593 0.282657
0.541729 -0.270865 2.321252 0.973772 -0.154309 -0.167203
0.578676 -0.000000 2.304156 0.973772 -0.154309 -0.167203
0.619414 -0.000000 2.523703 0.973772 -0.154309 -0.167203
0.571713 -0.285856 2.527416 0.973772 -0.154309 -0.167203
0.541729 0.270865 2.321252 0.919385 0.368634 -0.137259
0.471398 0.471398 2.353795 0.919385 0.368634 -0.137259
0.486881 0.486881 2.534019 0.919385 0.368634 -0.137259
0.571713 0.285856 2.527416 0.919385 0.368634 -0.137259
0.578676 -0.000000 2.304156 0.973772 0.154309 -0.167203
0.541729 0.270865 2.321252 0.973772 0.154309 -0.167203
0.571713 0.285856 2.527416 0.973772 0.154309 -0.167203
0.619414 -0.000000 2.523703 0.973772 0.154309 -0.167203
0.512758 -0.000000 2.137309 0.930815 0.131916 -0.340855
0.489942 0.244971 2.156647 0.930815 0.131916 -0.340855
0.541729 0.270865 2.321252 0.930815 0.131916 -0.340855
0.578676 -0.000000 2.304156 0.930815 0.131916 -0.340855
0.489942 0.244971 2.156647 0.902326 0.322714 -0.285767
0.441546 0.441546 2.197667 0.902326 0.322714 -0.285767
0.471398 0.471398 2.353795 0.902326 0.322714 -0.285767
0.541729 0.270865 2.321252 0.902326 0.322714 -0.285767
0.471398 -0.471398 2.353795 0.922073 -0.355602 -0.152739
0.541729 -0.270865 2.321252 0.922073 -0.355602 -0.152739
0.571713 -0.285856 2.527416 0.922073 -0.355602 -0.152739
0.486881 -0.504474 2.534019 0.922073 -0.355602 -0.152739
0.441546 -0.441546 2.197667 0.902326 -0.322714 -0.285767
0.489942 -0.244971 2.156647 0.902326 -0.322714 -0.285767
0.541729 -0.270865 2.321252 0.902326 -0.322714 -0.285767
0.471398 -0.471398 2.353795 0.902326 -0.322714 -0.285767
0.489942 -0.244971 2.156647 0.930815 -0.131916 -0.340855
0.512758 -0.000000 2.137309 0.930815 -0.131916 -0.340855
0.578676 -0.000000 2.304156 0.930815 -0.131916 -0.340855
0.541729 -0.270865 2.321252 0.930815 -0.131916 -0.340855
0.480035 -0.480035 2.719306 0.908864 -0.344809 0.234675
0.558151 -0.279075 2.743290 0.908864 -0.344809 0.234675
0.511718 -0.255859 2.925982 0.908864 -0.344809 0.234675
0.454595 -0.454595 2.886457 0.908864 -0.344809 0.234675
0.486881 -0.504474 2.534019 0.928447 -0.363704 0.075539
0.571713 -0.285856 2.527416 0.928447 -0.363704 0.075539
0.558151 -0.279075 2.743290 0.928447 -0.363704 0.075539
0.480035 -0.480035 2.719306 0.928447 -0.363704 0.075539
0.571713 -0.285856 2.527416 0.984633 -0.158554 0.073198
0.619414 -0.000000 2.523703 0.984633 -0.158554 0.073198
0.600724 -0.000000 2.756362 0.984633 -0.158554 0.073198
0.558151 -0.279075 2.743290 0.984633 -0.158554 0.073198
0.000000 0.349437 3.055477 -0.209067 0.209067 0.955292
-0.312854 0.312854 3.004853 -0.209067 0.209067 0.955292
-0.349437 -0.000000 3.055477 -0.209067 0.209067 0.955292
0.000000 -0.000000 3.141789 -0.209067 0.209067 0.955292
0.000000 0.539861 2.945454 -0.159504 0.449766 0.878788
-0.255859 0.511718 2.925982 -0.159504 0.449766 0.878788
-0.312854 0.312854 3.004853 -0.159504 0.449766 0.878788
0.000000 0.349437 3.055477 -0.159504 0.449766 0.878788
-0.255859 0.511718 2.925982 -0.359606 0.359606 0.861027
-0.454595 0.454595 2.886457 -0.359606 0.359606 0.861027
-0.511718 0.255859 2.925982 -0.359606 0.359606 0.861027
-0.312854 0.312854 3.004853 -0.359606 0.359606 0.861027
0.511718 0.255859 2.925982 0.449766 0.159504 0.878788
0.312854 0.312854 3.004853 0.449766 0.159504 0.878788
0.349437 -0.000000 3.055477 0.449766 0.159504 0.878788
0.539861 -0.000000 2.945454 0.449766 0.159504 0.878788
0.454595 0.454595 2.886457 0.359606 0.359606 0.861027
0.255859 0.511718 2.925982 0.359606 0.359606 0.861027
0.312854 0.312854 3.004853 0.359606 0.359606 0.861027
0.511718 0.255859 2.925982 0.359606 0.359606 0.861027
0.255859 0.511718 2.925982 0.159504 0.449766 0.878788
0.000000 0.539861 2.945454 0.159504 0.449766 0.878788
0.000000 0.349437 3.055477 0.159504 0.449766 0.878788
0.312854 0.312854 3.004853 0.159504 0.449766 0.878788
0.511718 -0.255859 2.925982 0.359606 -0.359606 0.861027
0.312854 -0.312854 3.004853 0.359606 -0.359606 0.861027
0.255859 -0.511718 2.925982 0.359606 -0.359606 0.861027
0.454595 -0.454595 2.886457 0.359606 -0.359606 0.861027
0.539861 -0.000000 2.945454 0.449766 -0.159504 0.878788
0.349437 -0.000000 3.055477 0.449766 -0.159504 0.878788
0.312854 -0.312854 3.004853 0.449766 -0.159504 0.878788
0.511718 -0.255859 2.925982 0.449766 -0.159504 0.878788
0.349437 -0.000000 3.055477 0.209067 -0.209067 0.955292
0.000000 -0.000000 3.141789 0.209067 -0.209067 0.955292
0.000000 -0.349437 3.055477 0.209067 -0.209067 0.955292
0.312854 -0.312854 3.004853 0.209067 -0.209067 0.955292
-0.578676 -0.000000 2.304156 -0.973772 -0.154309 -0.167203
-0.541729 -0.270865 2.321252 -0.973772 -0.154309 -0.167203
-0.571713 -0.285856 2.527416 -0.973772 -0.154309 -0.167203
-0.619414 -0.000000 2.523703 -0.973772 -0.154309 -0.167203
-0.512758 -0.000000 2.137309 -0.930815 -0.131916 -0.340855
-0.489942 -0.244971 2.156647 -0.930815 -0.131916 -0.340855
-0.541729 -0.270865 2.321252 -0.930815 -0.131916 -0.340855
-0.578676 -0.000000 2.304156 -0.930815 -0.131916 -0.340855
-0.489942 -0.244971 2.156647 -0.902326 -0.322714 -0.285767
-0.441546 -0.441546 2.197667 -0.902326 -0.322714 -0.285767
-0.471398 -0.471398 2.353795 -0.902326 -0.322714 -0.285767
-0.541729 -0.270865 2.321252 -0.902326 -0.322714 -0.285767
-0.471398 0.471398 2.353795 -0.919385 0.368634 -0.137259
-0.541729 0.270865 2.321252 -0.919385 0.368634 -0.137259
-0.571713 0.285856 2.527416 -0.919385 0.368634 -0.137259
-0.486881 0.486881 2.534019 -0.919385 0.368634 -0.137259
-0.441546 0.441546 2.197667 -0.902326 0.322714 -0.285767
-0.489942 0.244971 2.156647 -0.902326 0.322714 -0.285767
-0.541729 0.270865 2.321252 -0.902326 0.322714 -0.285767
-0.471398 0.471398 2.353795 -0.902326 0.322714 -0.285767
-0.489942 0.244971 2.156647 -0.930815 0.131916 -0.340855
-0.512758 -0.000000 2.137309 -0.930815 0.131916 -0.340855
-0.578676 -0.000000 2.304156 -0.930815 0.131916 -0.340855
-0.541729 0.270865 2.321252 -0.930815 0.131916 -0.340855
-0.480035 0.480035 2.719306 -0.908864 0.344809 0.234675
-0.558151 0.279075 2.743290 -0.908864 0.344809 0.234675
-0.511718 0.255859 2.925982 -0.908864 0.344809 0.234675
-0.454595 0.454595 2.886457 -0.908864 0.344809 0.234675
-0.486881 0.486881 2.534019 -0.924190 0.377217 0.059831
-0.571713 0.285856 2.527416 -0.924190 0.377217 0.059831
-0.558151 0.279075 2.743290 -0.924190 0.377217 0.059831
-0.480035 0.480035 2.719306 -0.924190 0.377217 0.059831
-0.571713 0.285856 2.527416 -0.984633 0.158554 0.073198
-0.619414 -0.000000 2.523703 -0.984633 0.158554 0.073198
-0.600724 -0.000000 2.756362 -0.984633 0.158554 0.073198
-0.558151 0.279075 2.743290 -0.984633 0.158554 0.073198
0.000000 -0.652141 2.407965 0.094200 -0.955510 0.279512
0.270865 -0.611914 2.320328 0.094200 -0.955510 0.279512
0.339222 -0.583944 2.526775 0.094200 -0.955510 0.279512
0.000000 -0.575427 2.536346 0.094200 -0.955510 0.279512
0.000000 -0.634737 1.947246 0.133974 -0.990305 -0.036687
0.207357 -0.607476 1.959551 0.133974 -0.990305 -0.036687
0.270865 -0.611914 2.320328 0.133974 -0.990305 -0.036687
0.000000 -0.652141 2.407965 0.133974 -0.990305 -0.036687
0.207357 -0.607476 1.959551 0.634974 -0.754761 -0.164753
0.441546 -0.441546 2.197667 0.634974 -0.754761 -0.164753
0.471398 -0.471398 2.353795 0.634974 -0.754761 -0.164753
0.270865 -0.611914 2.320328 0.634974 -0.754761 -0.164753
-0.471398 -0.471398 2.353795 -0.540384 -0.831602 -0.128150
-0.270865 -0.611914 2.320328 -0.540384 -0.831602 -0.128150
-0.339222 -0.583944 2.526775 -0.540384 -0.831602 -0.128150
-0.486881 -0.504474 2.534019 -0.540384 -0.831602 -0.128150
-0.441546 -0.441546 2.197667 -0.634974 -0.754761 -0.164753
-0.207357 -0.607476 1.959551 -0.634974 -0.754761 -0.164753
-0.270865 -0.611914 2.320328 -0.634974 -0.754761 -0.164753
-0.471398 -0.471398 2.353795 -0.634974 -0.754761 -0.164753
-0.207357 -0.607476 1.959551 -0.133974 -0.990305 -0.036687
0.000000 -0.634737 1.947246 -0.133974 -0.990305 -0.036687
0.000000 -0.652141 2.407965 -0.133974 -0.990305 -0.036687
-0.270865 -0.611914 2.320328 -0.133974 -0.990305 -0.036687
-0.480035 -0.480035 2.719306 -0.344809 -0.908864 0.234675
-0.279075 -0.558151 2.743290 -0.344809 -0.908864 0.234675
-0.255859 -0.511718 2.925982 -0.344809 -0.908864 0.234675
-0.454595 -0.454595 2.886457 -0.344809 -0.908864 0.234675
-0.486881 -0.504474 2.534019 -0.412324 -0.893000 0.180389
-0.339222 -0.583944 2.526775 -0.412324 -0.893000 0.180389
-0.279075 -0.558151 2.743290 -0.412324 -0.893000 0.180389
-0.480035 -0.480035 2.719306 -0.412324 -0.893000 0.180389
-0.339222 -0.583944 2.526775 -0.055315 -0.998431 0.008754
0.000000 -0.575427 2.536346 -0.055315 -0.998431 0.008754
0.000000 -0.600724 2.756362 -0.055315 -0.998431 0.008754
-0.279075 -0.558151 2.743290 -0.055315 -0.998431 0.008754
0.000000 0.578676 2.304156 -0.154309 0.973772 -0.167203
-0.270865 0.541729 2.321252 -0.154309 0.973772 -0.167203
-0.285856 0.571713 2.527416 -0.154309 0.973772 -0.167203
0.000000 0.619414 2.523703 -0.154309 0.973772 -0.167203
0.000000 0.512758 2.137309 -0.131916 0.930815 -0.340855
-0.244971 0.489942 2.156647 -0.131916 0.930815 -0.340855
-0.270865 0.541729 2.321252 -0.131916 0.930815 -0.340855
0.000000 0.578676 2.304156 -0.131916 0.930815 -0.340855
-0.244971 0.489942 2.156647 -0.322714 0.902326 -0.285767
-0.441546 0.441546 2.197667 -0.322714 0.902326 -0.285767
-0.471398 0.471398 2.353795 -0.322714 0.902326 -0.285767
-0.270865 0.541729 2.321252 -0.322714 0.902326 -0.285767
0.471398 0.471398 2.353795 0.368634 0.919385 -0.137259
0.270865 0.541729 2.321252 0.368634 0.919385 -0.137259
0.285856 0.571713 2.527416 0.368634 0.919385 -0.137259
0.486881 0.486881 2.534019 0.368634 0.919385 -0.137259
0.441546 0.441546 2.197667 0.322714 0.902326 -0.285767
0.244971 0.489942 2.156647 0.322714 0.902326 -0.285767
0.270865 0.541729 2.321252 0.322714 0.902326 -0.285767
0.471398 0.471398 2.353795 0.322714 0.902326 -0.285767
0.244971 0.489942 2.156647 0.131916 0.930815 -0.340855
0.000000 0.512758 2.137309 0.131916 0.930815 -0.340855
0.000000 0.578676 2.304156 0.131916 0.930815 -0.340855
0.270865 0.541729 2.321252 0.131916 0.930815 -0.340855
0.480035 0.480035 2.719306 0.344809 0.908864 0.234675
0.279075 0.558151 2.743290 0.344809 0.908864 0.234675
0.255859 0.511718 2.925982 0.344809 0.908864 0.234675
0.454595 0.454595 2.886457 0.344809 0.908864 0.234675
0.486881 0.486881 2.534019 0.377217 0.924190 0.059831
0.285856 0.571713 2.527416 0.377217 0.924190 0.059831
0.279075 0.558151 2.743290 0.377217 0.924190 0.059831
0.480035 0.480035 2.719306 0.377217 0.924190 0.059831
0.285856 0.571713 2.527416 0.158554 0.984633 0.073198
0.000000 0.619414 2.523703 0.158554 0.984633 0.073198
0.000000 0.600724 2.756362 0.158554 0.984633 0.073198
0.279075 0.558151 2.743290 0.158554 0.984633 0.073198
0.000000 0.600724 2.756362 -0.142593 0.948563 0.282657
-0.279075 0.558151 2.743290 -0.142593 0.948563 0.282657
-0.255859 0.511718 2.925982 -0.142593 0.948563 0.282657
0.000000 0.539861 2.945454 -0.142593 0.948563 0.282657
0.000000 0.619414 2.523703 -0.158554 0.984633 0.073198
-0.285856 0.571713 2.527416 -0.158554 0.984633 0.073198
-0.279075 0.558151 2.743290 -0.158554 0.984633 0.073198
0.000000 0.600724 2.756362 -0.158554 0.984633 0.073198
-0.285856 0.571713 2.527416 -0.377217 0.924190 0.059831
-0.486881 0.486881 2.534019 -0.377217 0.924190 0.059831
-0.480035 0.480035 2.719306 -0.377217 0.924190 0.059831
-0.279075 0.558151 2.743290 -0.377217 0.924190 0.059831
0.000000 -0.600724 2.756362 0.142593 -0.948563 0.282657
0.279075 -0.558151 2.743290 0.142593 -0.948563 0.282657
0.255859 -0.511718 2.925982 0.142593 -0.948563 0.282657
0.000000 -0.539861 2.945454 0.142593 -0.948563 0.282657
0.000000 -0.575427 2.536346 0.055315 -0.998431 0.008754
0.339222 -0.583944 2.526775 0.055315 -0.998431 0.008754
0.279075 -0.558151 2.743290 0.055315 -0.998431 0.008754
0.000000 -0.600724 2.756362 0.055315 -0.998431 0.008754
0.339222 -0.583944 2.526775 0.412324 -0.893000 0.180389
0.486881 -0.504474 2.534019 0.412324 -0.893000 0.180389
0.480035 -0.480035 2.719306 0.412324 -0.893000 0.180389
0.279075 -0.558151 2.743290 0.412324 -0.893000 0.180389
-0.600724 -0.000000 2.756362 -0.948563 -0.142593 0.282657
-0.558151 -0.279075 2.743290 -0.948563 -0.142593 0.282657
-0.511718 -0.255859 2.925982 -0.948563 -0.142593 0.282657
-0.539861 -0.000000 2.945454 -0.948563 -0.142593 0.282657
-0.619414 -0.000000 2.523703 -0.984633 -0.158554 0.073198
-0.571713 -0.285856 2.527416 -0.984633 -0.158554 0.073198
-0.558151 -0.279075 2.743290 -0.984633 -0.158554 0.073198
-0.600724 -0.000000 2.756362 -0.984633 -0.158554 0.073198
-0.571713 -0.285856 2.527416 -0.928447 -0.363704 0.075539
-0.486881 -0.504474 2.534019 -0.928447 -0.363704 0.075539
-0.480035 -0.480035 2.719306 -0.928447 -0.363704 0.075539
-0.558151 -0.279075 2.743290 -0.928447 -0.363704 0.075539
0.000000 -0.349437 3.055477 -0.159504 -0.449766 0.878788
-0.312854 -0.312854 3.004853 -0.159504 -0.449766 0.878788
-0.255859 -0.511718 2.925982 -0.159504 -0.449766 0.878788
0.000000 -0.539861 2.945454 -0.159504 -0.449766 0.878788
0.000000 -0.000000 3.141789 -0.209067 -0.209067 0.955292
-0.349437 -0.000000 3.055477 -0.209067 -0.209067 0.955292
-0.312854 -0.312854 3.004853 -0.209067 -0.209067 0.955292
0.000000 -0.349437 3.055477 -0.209067 -0.209067 0.955292
-0.349437 -0.000000 3.055477 -0.449766 -0.159504 0.878788
-0.539861 -0.000000 2.945454 -0.449766 -0.159504 0.878788
-0.511718 -0.255859 2.925982 -0.449766 -0.159504 0.878788
-0.312854 -0.312854 3.004853 -0.449766 -0.159504 0.878788
0.600724 -0.000000 2.756362 0.948563 0.142593 0.282657
0.558151 0.279075 2.743290 0.948563 0.142593 0.282657
0.511718 0.255859 2.925982 0.948563 0.142593 0.282657
0.539861 -0.000000 2.945454 0.948563 0.142593 0.282657
0.619414 -0.000000 2.523703 0.984633 0.158554 0.073198
0.571713 0.285856 2.527416 0.984633 0.158554 0.073198
0.558151 0.279075 2.743290 0.984633 0.158554 0.073198
0.600724 -0.000000 2.756362 0.984633 0.158554 0.073198
0.571713 0.285856 2.527416 0.924190 0.377217 0.059831
0.486881 0.486881 2.534019 0.924190 0.377217 0.059831
0.480035 0.480035 2.719306 0.924190 0.377217 0.059831
0.558151 0.279075 2.743290 0.924190 0.377217 0.059831
4 0 1 2 3
4 4 5 6 7
4 8 9 10 11
4 12 13 14 15
4 16 17 18 19
4 20 21 22 23
3 24 25 26
3 27 28 29
3 30 31 32
3 33 34 35
3 36 37 38
4 39 40 41 42
4 43 44 45 46
4 47 48 49 50
4 51 52 53 54
3 55 56 57
3 58 59 60
3 61 62 63
3 64 65 66
3 67 68 69
3 70 71 72
3 73 74 75
3 76 77 78
3 79 80 81
3 82 83 84
3 85 86 87
3 88 89 90
3 91 92 93
3 94 95 96
3 97 98 99
4 100 101 102 103
4 104 105 106 107
4 108 109 110 111
4 112 113 114 115
4 116 117 118 119
4 120 121 122 123
4 124 125 126 127
4 128 129 130 131
4 132 133 134 135
4 136 137 138 139
4 140 141 142 143
4 144 145 146 147
4 148 149 150 151
4 152 153 154 155
4 156 157 158 159
4 160 161 162 163
4 164 165 166 167
4 168 169 170 171
4 172 173 174 175
4 176 177 178 179
4 180 181 182 183
4 184 185 186 187
4 188 189 190 191
4 192 193 194 195
4 196 197 198 199
4 200 201 202 203
4 204 205 206 207
4 208 209 210 211
4 212 213 214 215
4 216 217 218 219
4 220 221 222 223
4 224 225 226 227
4 228 229 230 231
4 232 233 234 235
4 236 237 238 239
4 240 241 242 243
4 244 245 246 247
4 248 249 250 251
4 252 253 254 255
4 256 257 258 259
4 260 261 262 263
4 264 265 266 267
4 268 269 270 271
4 272 273 274 275
4 276 277 278 279
4 280 281 282 283
4 284 285 286 287
4 288 289 290 291
4 292 293 294 295
4 296 297 298 299
4 300 301 302 303
4 304 305 306 307
4 308 309 310 311
4 312 313 314 315
4 316 317 318 319
4 320 321 322 323
4 324 325 326 327
4 328 329 330 331
4 332 333 334 335
4 336 337 338 339
4 340 341 342 343
4 344 345 346 347
4 348 349 350 351
4 352 353 354 355
4 356 357 358 359
4 360 361 362 363
4 364 365 366 367
4 368 369 370 371
4 372 373 374 375
4 376 377 378 379
4 380 381 382 383
4 384 385 386 387
4 388 389 390 391
4 392 393 394 395
4 396 397 398 399
4 400 401 402 403
4 404 405 406 407
4 408 409 410 411
4 412 413 414 415
